<?xml version="1.0" encoding="utf-8"?>
<!-- Svg Vector Icons : http://www.sfont.cn -->
<!DOCTYPE svg PUBLIC "-//W3C//DTD SVG 1.1//EN" "http://www.w3.org/Graphics/SVG/1.1/DTD/svg11.dtd">
<svg version="1.1" xmlns="http://www.w3.org/2000/svg" xmlns:xlink="http://www.w3.org/1999/xlink" x="0px" y="0px" viewBox="0 0 1000 1000" enable-background="new 0 0 1000 1000" xml:space="preserve">
<metadata> Svg Vector Icons : http://www.sfont.cn </metadata>
<g><path d="M647,387.5H282.6c-12.2,0-22.2,9.9-22.2,22.2c0,12.2,9.9,22.1,22.2,22.1H647c12.2,0,22.2-9.9,22.2-22.1C669.1,397.4,659.2,387.5,647,387.5z M288.9,312h346.7c19.7,0,35.6-16,35.6-35.6V179c0-19.6-16-35.6-35.6-35.6H288.9c-19.7,0-35.6,16-35.6,35.6v97.3C253.3,296,269.2,312,288.9,312z M297.6,187.7h329.3v79.9H297.6V187.7z M849.2,569.9c-11-20.3-25.8-37.6-43.3-51.4V68.8c0-32.4-26.4-58.8-58.8-58.8H189.7c-32.4,0-58.8,26.4-58.8,58.8v794.4c0,32.4,26.4,58.8,58.8,58.8h400.6l-0.2,36.4c0,0.8,0,1.6,0.1,2.4c2.1,20.1,16,29.1,28.9,29.1c11.5,0,20.8-6.7,26.8-11.7l57.2-47.8l59.6,50.8c7.5,5.8,15.2,8.8,22.9,8.8c5,0,30-1.9,30.3-39l0.9-181.7C870.2,719.1,885.7,637.4,849.2,569.9z M590.5,877.6H189.7c-8,0-14.4-6.5-14.4-14.4V68.8c0-8,6.5-14.4,14.4-14.4h557.4c8,0,14.4,6.5,14.4,14.4v424.8c-2.5-1-5.3-1.6-7.8-2.4c-2.7-0.8-5.3-1.8-8-2.5c-3.9-1-7.9-1.7-11.9-2.4c-6.4-1.2-12.8-2-19.4-2.4c-1.8-0.1-3.6-0.3-5.5-0.4c-1.9,0-3.7-0.4-5.6-0.4c-3.2,0-6.4,0.4-9.5,0.6c-0.8,0-1.6,0.1-2.4,0.1c-5.1,0.4-10.1,1-15.1,1.8c-1.3,0.2-2.6,0.5-3.9,0.7c-4.5,0.8-8.9,1.8-13.3,3c-2.5,0.7-5,1.6-7.5,2.4c-3.2,1.1-6.5,2.1-9.6,3.3c-5.9,2.3-11.6,4.9-17.1,7.9c-2.4,1.4-4.8,2.9-7.2,4.3H282.6c-12.2,0-22.2,9.9-22.2,22.1c0,12.3,9.9,22.2,22.2,22.2h286.9c-10.8,14.9-19.2,31.6-24.6,49.7c-2.5,8.5-4.2,17.1-5.3,25.8H282.6c-12.2,0-22.2,9.9-22.2,22.2c0,12.2,9.9,22.2,22.2,22.2h257c1.9,13.6,5.4,27.1,10.7,40c0.1,0.2,0.2,0.5,0.3,0.7c2.1,5.2,4.6,10.3,7.3,15.3c3.3,6.1,7.1,11.9,11,17.4c0.7,0.9,1.3,1.8,2,2.7l0.7,1H282.6c-12.2,0-22.2,10-22.2,22.1c0,12.2,9.9,22.2,22.2,22.2h308.3L590.5,877.6z M771.5,930.5l-53.9-46c-4.2-3.5-9.3-5.3-14.4-5.3c-5.1,0-10.1,1.7-14.2,5.2l-54.4,45.4l0.6-130.4c0.4,0.1,0.8,0.3,1.2,0.4c1.1,0.5,2.1,1,3.1,1.4c0.3,0.1,0.5,0.2,0.7,0.3c0.5,0.2,1,0.3,1.6,0.5c0.4,0.2,0.9,0.3,1.3,0.5c0.3,0.1,0.5,0.4,0.8,0.5c1.9,0.7,3.8,1.3,5.7,2c1,0.3,1.9,0.7,2.8,1c0.5,0.2,1.1,0.4,1.6,0.6c0.3,0.1,0.6,0,0.9,0.1c2.4,0.7,4.9,1.5,7.4,2.1c2,0.5,3.9,1.1,5.9,1.5h0.1c0.3,0.1,0.6,0,0.9,0.1c0.8,0.2,1.7,0.2,2.6,0.4c0.5,0.1,0.9,0.4,1.4,0.5c1.5,0.3,3.1,0.5,4.6,0.7c1.9,0.3,3.7,0.6,5.6,0.8c1.2,0.2,2.3,0.4,3.5,0.5c0.7,0.1,1.3,0.1,2,0.1c0,0,0.1,0,0.2,0c4.1,0.4,8.1,0.6,12.2,0.6h0.4c0.1,0,0.3,0,0.4,0c0.5,0,1.1,0.1,1.6,0.1c0.7,0,1.4-0.1,2-0.1c0,0,0.1,0,0.1,0h0.3c3.4,0,6.8-0.2,10.2-0.5c0.4,0,0.7-0.2,1-0.3c0.3,0,0.6,0,0.9-0.1c0.1,0,0.3,0.1,0.4,0.1c0.8,0,1.5,0,2.3-0.1c0.5,0,0.9-0.1,1.4-0.2c1.7-0.2,3.4-0.5,5-0.7c2.6-0.4,5.3-0.6,7.9-1.2l0.5-0.2c0.1,0,0.1,0,0.2,0c1.7-0.4,3.4-0.8,5.1-1.3c1.8-0.4,3.6-0.9,5.4-1.4c1-0.3,2.1-0.5,3.1-0.8c0.5-0.1,0.8-0.4,1.2-0.6c0.8-0.2,1.6-0.4,2.4-0.7c0.2,0,0.4,0,0.6-0.1c0.3-0.1,0.5-0.2,0.8-0.3c1.3-0.4,2.6-1,3.9-1.4c0.6-0.2,1.3-0.5,1.9-0.7c2.2-0.8,4.4-1.7,6.6-2.6c0.5-0.2,1-0.2,1.5-0.4c0.5-0.2,1-0.5,1.5-0.7c0.7-0.3,1.5-0.5,2.2-0.8L771.5,930.5z M780.2,742.5c-3,2.4-6,4.7-9.1,6.8c-3.2,2.1-6.5,4.2-10,6.1c-5,2.7-10.2,5-15.5,6.9c-0.5,0.2-0.9,0.3-1.4,0.5c-0.2,0-0.4,0.1-0.6,0.2c-33.2,11.3-71,7.7-101.3-9.7c-0.4-0.2-0.7-0.4-1-0.6c-4.8-2.8-9.4-6-13.8-9.4c-3.7-3-7.2-6.2-10.6-9.6c-0.8-0.8-1.6-1.8-2.4-2.6c-2.6-2.8-5.1-5.8-7.5-8.9c-0.8-1.1-1.6-2.1-2.4-3.2c-2.9-4-5.6-8.2-8-12.6c-9.8-18.1-14.4-37.7-14.5-57v-0.1c0-0.1,0-0.2,0-0.3c0-43.2,23-85.1,63.6-107c4.8-2.6,9.8-4.8,14.8-6.7c0.6-0.3,1.2-0.4,1.7-0.6c25.4-9,53.6-9.2,79.1-1c0.2,0.1,0.4,0.2,0.6,0.2c4.6,1.5,9.1,3.4,13.5,5.5c1.2,0.5,2.3,1.1,3.5,1.8c3.5,1.8,6.9,3.7,10.2,5.8c16.8,10.9,31,25.8,40.9,44C838.3,642.9,824.4,706.4,780.2,742.5z" fill="#ffffff"/></g>
</svg>