<?xml version="1.0" encoding="utf-8"?>
<!-- Svg Vector Icons : http://www.sfont.cn -->
<!DOCTYPE svg PUBLIC "-//W3C//DTD SVG 1.1//EN" "http://www.w3.org/Graphics/SVG/1.1/DTD/svg11.dtd">
<svg version="1.1" xmlns="http://www.w3.org/2000/svg" xmlns:xlink="http://www.w3.org/1999/xlink" x="0px" y="0px" viewBox="0 0 1000 1000" enable-background="new 0 0 1000 1000" xml:space="preserve">
<metadata> Svg Vector Icons : http://www.sfont.cn </metadata>
<g><path d="M211.3,592.3h380.3v19.4H211.3V592.3L211.3,592.3z" fill="#ffffff"/><path d="M211.3,733.8h380.3v19.4H211.3V733.8z" fill="#ffffff"/><path d="M931.9,235.9H921c-2.4-6.7-5.2-13.2-8.2-19.7l7.7-7.7l41.1-41.1l-41.1-41.1l-31-31l-41.1-41.1l-41.1,41l-7.7,7.7c-6.5-3-13.1-5.8-19.8-8.2V84V25.8h-58.1h-43.9h-58.1V84v10.8c-6.7,2.4-13.3,5.2-19.8,8.2l-7.7-7.7l-41.1-41l-41.1,41.1l-31,31L438,167.4l41.1,41.1l7.7,7.7l-0.1,0.2H68.1H10v58.1V916v58.1h58.1h669.8H796V916V530.7l3.6-1.6l7.7,7.7l41.1,41l41.1-41.1l31-31l41.1-41.1l-41.1-41.1l-7.7-7.7c3-6.5,5.8-13.1,8.2-19.7h10.8H990V338v-43.9v-58.1H931.9z M877.6,338l-7.4,26.4c-3.7,13.1-9,25.9-15.8,38.1l-13.4,23.9l19.4,19.3l19,19l-31,31l-19.1-19L810,457.3l-23.9,13.4c-12.1,6.8-24.9,12.1-38.1,15.8l-10.2,2.9l0,0l-16.2,4.6v27.3v26.9h-43.9v-26.9v-27.4l-26.3-7.4c-13.2-3.7-26-9-38.1-15.8l-23.8-13.4l-19.3,19.3l-19.1,19l-30.4-30.4V464l18.4-18.4l19.4-19.3l-13.4-23.9c-6.8-12.1-12.1-24.9-15.8-38.1l-7.4-26.3h-27.3h-26.9v-43.9h26.9h27.3l7.5-26.3c3.7-13.2,9-26,15.8-38.1l13.4-23.9l-19.4-19.3l-19-19l31-31l19.1,19l19.4,19.4l23.9-13.4c12-6.8,24.8-12.1,38.1-15.8l26.3-7.4v-27.3V84h43.9v26.8v27.3l26.3,7.4c13.2,3.7,26,9.1,38.1,15.8l23.9,13.4l19.4-19.3l19.1-19l31,31l-19,19l-19.4,19.4l13.4,23.9c6.8,12.1,12.1,24.9,15.8,38l7.4,26.4H905h26.8V338H905L877.6,338L877.6,338z M68.1,916V274.5h439.2l-0.1,0.2h-12.7h-26.9h-19.4v19.4V338v19.4h19.4h26.9h12.7l3.4,12.2c4.2,14.7,10.1,28.9,17.6,42.3l6.2,11.1l-9,9l-19,19l-2.9,2.9H211.3v19.4h290.1l5.1,5.1l31,31l13.7,13.7l13.7-13.7l19.1-19l9-9l11,6.2c13.4,7.5,27.7,13.4,42.3,17.6l12.2,3.4v12.7v26.9v19.4h19.4h43.9h16.2V916H68.1z" fill="#ffffff"/><path d="M699.8,224.6L699.8,224.6c-24.4,0-47.4,9.5-64.7,26.8c-17.3,17.3-26.8,40.3-26.8,64.7c0,24.4,9.5,47.4,26.8,64.7c17.3,17.3,40.3,26.8,64.7,26.8c24.4,0,47.4-9.5,64.7-26.8c17.3-17.3,26.8-40.3,26.8-64.7c0-24.4-9.5-47.4-26.8-64.7C747.2,234.1,724.2,224.6,699.8,224.6z M750.8,367c-13.1,13.1-31,21.1-50.9,21.1c-20,0-37.9-8-51-21.1c-13.1-13.1-21.1-31-21.1-51c0-20,8-37.9,21.1-51c13.1-13.1,31-21.1,51-21.1c20,0,37.9,8,50.9,21.1c13.1,13.1,21.1,31,21.1,51C771.9,336,763.9,353.9,750.8,367z" fill="#ffffff"/></g>
</svg>