<?xml version="1.0" encoding="iso-8859-1"?>
<!-- Generator: Adobe Illustrator 19.0.0, SVG Export Plug-In . SVG Version: 6.00 Build 0)  -->
<svg xmlns="http://www.w3.org/2000/svg" xmlns:xlink="http://www.w3.org/1999/xlink" version="1.1" id="Capa_1" x="0px" y="0px" viewBox="0 0 512.51 512.51" style="enable-background:new 0 0 512.51 512.51;" xml:space="preserve" width="512px" height="512px">
<g>
	<g>
		<g>
			<path d="M512.263,304.255v-96h-48v-50.304c24.902-6.461,43.542-27.166,47.36-52.608l-31.696-4.528     c-2.482,17.498-18.678,29.671-36.176,27.19c-17.498-2.482-29.671-18.678-27.19-36.176c1.763-12.43,10.631-22.681,22.678-26.214     l-9.008-30.704c-33.83,9.963-53.178,45.464-43.215,79.294c6.341,21.53,23.519,38.151,45.247,43.778v50.272h-160v-34.272     c34.224-8.837,54.804-43.744,45.968-77.968c-8.837-34.224-43.744-54.804-77.968-45.968     c-34.224,8.837-54.804,43.744-45.968,77.968c5.821,22.543,23.424,40.147,45.968,45.968v34.272h-160v-82.272     c34.224-8.837,54.804-43.744,45.968-77.968C117.394,13.792,82.487-6.789,48.263,2.048S-6.541,45.792,2.295,80.015     c5.821,22.543,23.424,40.147,45.968,45.968v82.272h-48v96h144v34.272c-34.224,8.837-54.804,43.744-45.968,77.968     c8.837,34.224,43.744,54.804,77.968,45.968s54.804-43.744,45.968-77.968c-5.821-22.543-23.424-40.147-45.968-45.968v-34.272h160     v82.272c-34.224,8.837-54.804,43.744-45.968,77.968c8.837,34.224,43.744,54.804,77.968,45.968     c34.224-8.837,54.804-43.744,45.968-77.968c-5.821-22.543-23.425-40.147-45.968-45.968v-82.272H512.263z M416.263,240.255h64v32     h-64V240.255z M224.263,112.255c0-17.673,14.327-32,32-32c17.673,0,32,14.327,32,32s-14.327,32-32,32     C238.59,144.255,224.263,129.928,224.263,112.255z M32.263,64.255c0-17.673,14.327-32,32-32s32,14.327,32,32s-14.327,32-32,32     S32.263,81.928,32.263,64.255z M96.263,272.255h-64v-32h64V272.255z M192.263,400.255c0,17.673-14.327,32-32,32s-32-14.327-32-32     c0-17.673,14.327-32,32-32S192.263,382.582,192.263,400.255z M192.263,272.255h-64v-32h64V272.255z M288.263,272.255h-64v-32h64     V272.255z M384.263,448.255c0,17.673-14.327,32-32,32c-17.673,0-32-14.327-32-32c0-17.673,14.327-32,32-32     C369.936,416.255,384.263,430.582,384.263,448.255z M320.263,272.255v-32h64v32H320.263z" fill="#FFFFFF"/>
			<path d="M475.991,80.255l27.696-16c-7.204-12.389-18.327-22.026-31.616-27.392l-11.936,29.68     C466.796,69.227,472.374,74.051,475.991,80.255z" fill="#FFFFFF"/>
		</g>
	</g>
</g>
<g>
</g>
<g>
</g>
<g>
</g>
<g>
</g>
<g>
</g>
<g>
</g>
<g>
</g>
<g>
</g>
<g>
</g>
<g>
</g>
<g>
</g>
<g>
</g>
<g>
</g>
<g>
</g>
<g>
</g>
</svg>
