<?xml version="1.0" encoding="iso-8859-1"?>
<!-- Generator: Adobe Illustrator 19.0.0, SVG Export Plug-In . SVG Version: 6.00 Build 0)  -->
<svg version="1.1" id="Capa_1" xmlns="http://www.w3.org/2000/svg" xmlns:xlink="http://www.w3.org/1999/xlink" x="0px" y="0px"
	 viewBox="0 0 504.42 504.42" style="enable-background:new 0 0 504.42 504.42;" xml:space="preserve">
<circle style="fill:#FBBD5E;" cx="252.218" cy="252.21" r="211.102"/>
<path style="fill:#FFFFFF;" d="M407.393,252.21c-21.268-27.569-45.686-55.138-72.468-82.708
	c-27.569-27.569-55.138-51.988-82.708-72.468c-27.569,21.268-55.138,45.686-82.708,72.468
	c-27.569,27.569-51.988,55.138-72.468,82.708c21.268,27.569,45.686,55.138,72.468,82.708c27.569,27.569,55.138,51.988,82.708,72.468
	c27.569-21.268,55.138-45.686,82.708-72.468C361.707,307.348,386.126,279.779,407.393,252.21z"/>
<path style="fill:#183651;" d="M252.218,415.262c-1.575,0-3.151-0.788-4.726-1.575c-28.357-22.055-56.714-46.474-83.495-73.255
	s-51.2-55.138-73.255-83.495c-2.363-3.151-2.363-7.089,0-9.452c22.055-28.357,46.474-56.714,73.255-83.495
	s55.138-51.2,83.495-73.255c3.151-2.363,7.089-2.363,9.452,0c28.357,22.055,56.714,46.474,83.495,73.255
	c26.782,26.782,51.2,55.138,73.255,83.495c2.363,3.151,2.363,7.089,0,9.452c-22.055,28.357-46.474,56.714-73.255,83.495
	c-26.782,26.782-55.138,51.2-83.495,73.255C255.369,414.475,253.793,415.262,252.218,415.262z M106.495,252.21
	c20.48,25.994,43.323,51.988,68.529,77.194c25.206,25.206,50.412,48.049,77.194,68.529c25.994-20.48,51.988-43.323,77.194-68.529
	c25.206-25.206,48.049-50.412,68.529-77.194c-20.48-25.994-43.323-51.988-68.529-77.194c-25.206-25.206-50.412-48.049-77.194-68.529
	c-25.994,20.48-51.988,43.323-77.194,68.529C150.606,200.222,127.763,226.216,106.495,252.21z"/>
<circle style="fill:#FBBD5E;" cx="252.218" cy="252.21" r="84.283"/>
<g>
	<path style="fill:#183651;" d="M63.959,504.271c-19.692,0-35.446-5.514-47.262-16.542c-24.418-24.418-22.055-72.468,7.089-134.695
		c28.357-59.865,77.982-126.818,140.209-189.046c98.462-97.674,209.526-163.84,276.48-163.84c19.692,0,35.446,5.514,47.262,16.542
		c49.625,49.625-14.966,191.409-147.298,323.742C241.978,438.105,130.913,504.271,63.959,504.271z M440.476,15.902
		c-63.015,0-170.142,63.803-265.452,159.114c-60.652,60.652-108.702,126.818-136.271,184.32
		C12.759,414.475,8.821,457.01,27.726,476.702c7.877,7.877,19.692,11.815,35.446,11.815c63.015,0,170.142-63.803,265.452-159.114
		C450.716,207.311,518.458,69.465,476.71,27.718C468.046,19.841,456.23,15.902,440.476,15.902z"/>
	<path style="fill:#183651;" d="M440.476,504.271c-66.954,0-178.018-66.166-276.48-163.84
		C32.452,208.099-32.139,66.315,16.698,16.69C27.726,5.662,43.479,0.148,63.959,0.148c66.954,0,178.018,66.166,276.48,163.84
		C472.772,296.321,537.362,438.105,487.738,487.73C476.71,498.758,460.956,504.271,440.476,504.271z M63.959,15.902
		c-15.754,0-27.569,3.938-36.234,11.815c-41.748,41.748,25.994,179.594,147.298,300.898
		c95.311,95.311,201.649,159.114,265.452,159.114c15.754,0,27.569-3.938,35.446-11.815
		c41.748-41.748-25.994-179.594-147.298-300.898C234.101,79.705,126.975,15.902,63.959,15.902z"/>
	<path style="fill:#183651;" d="M249.855,301.835v-8.665c-11.028-0.788-21.268-5.514-29.932-13.391l8.665-10.24
		c7.089,5.514,13.391,9.452,20.48,10.24v-23.631c-9.452-2.363-15.754-4.726-19.692-8.665c-3.938-3.151-6.302-8.665-6.302-15.754
		c0-7.089,2.363-12.603,7.089-17.329c4.726-4.726,11.028-7.089,18.905-7.089v-6.302h7.877v6.302
		c8.665,0.788,17.329,3.938,25.206,8.665l-7.877,11.028c-5.514-3.938-11.028-6.302-17.329-7.089v22.843l0,0
		c9.452,2.363,15.754,4.726,20.48,8.665c4.726,3.938,6.302,9.452,6.302,15.754c0,7.089-2.363,12.603-7.089,17.329
		c-4.726,4.726-11.815,7.089-19.692,7.089v8.665h-7.089V301.835z M241.19,224.641c-2.363,1.575-3.151,3.938-3.151,7.089
		c0,3.151,0.788,4.726,2.363,6.302c1.575,1.575,4.726,3.151,9.452,4.726v-20.48C245.916,221.49,242.766,222.278,241.19,224.641z
		 M266.396,277.416c2.363-1.575,3.151-3.938,3.151-7.089c0-3.151-0.788-4.726-2.363-6.302s-4.726-3.151-10.24-4.726v22.055
		C260.883,280.567,264.033,278.991,266.396,277.416z"/>
	<path style="fill:#183651;" d="M353.043,38.745c-4.726-2.363-9.452-3.938-14.178-6.302l5.514-14.966
		c4.726,2.363,10.24,3.938,14.966,6.302L353.043,38.745z M160.846,34.019l-6.302-14.178c4.726-2.363,10.24-3.938,14.966-5.514
		l5.514,14.966C170.298,30.868,165.572,32.444,160.846,34.019z M324.686,26.93c-4.726-1.575-9.452-3.151-14.966-3.938l3.938-14.966
		c5.514,1.575,10.24,3.151,15.754,4.726L324.686,26.93z M189.203,24.567l-3.938-15.754c5.514-1.575,10.24-2.363,15.754-3.938
		l3.151,15.754C199.443,22.204,194.716,22.991,189.203,24.567z M295.541,19.841c-4.726-0.788-10.24-1.575-14.966-2.363l1.575-15.754
		c5.514,0.788,11.028,1.575,15.754,2.363L295.541,19.841z M219.135,18.265l-2.363-15.754c5.514-0.788,11.028-1.575,16.542-1.575
		l0.788,15.754C229.375,16.69,224.649,17.478,219.135,18.265z M264.821,15.902c-3.938,0-8.665,0-12.603,0h-2.363V0.148h2.363
		c4.726,0,9.452,0,13.391,0L264.821,15.902z"/>
	<path style="fill:#183651;" d="M19.849,349.884c-2.363-4.726-3.938-10.24-5.514-14.966l14.966-5.514
		c1.575,4.726,3.151,9.452,5.514,14.178L19.849,349.884z M8.821,319.164c-1.575-5.514-2.363-10.24-3.938-15.754l15.754-3.151
		c0.788,4.726,2.363,10.24,3.938,14.966L8.821,319.164z M2.519,287.656c-0.788-5.514-1.575-11.028-1.575-16.542l15.754-0.788
		c0,4.726,0.788,10.24,1.575,14.966L2.519,287.656z M0.156,254.573v-2.363c0-4.726,0-9.452,0-13.391l15.754,0.788
		c0,3.938,0,8.665,0,12.603v2.363H0.156z M17.486,224.641l-15.754-1.575c0.788-5.514,1.575-11.028,2.363-15.754l15.754,1.575
		C19.061,214.401,18.273,219.127,17.486,224.641z M22.999,194.708L8.033,190.77c1.575-5.514,3.151-10.24,4.726-15.754l14.966,4.726
		C25.363,184.468,24.575,189.195,22.999,194.708z M32.452,165.564l-14.966-5.514c2.363-4.726,3.938-10.24,6.302-14.966l14.178,7.089
		C36.39,156.111,34.027,160.838,32.452,165.564z"/>
	<path style="fill:#183651;" d="M252.218,504.271c-4.726,0-9.452,0-13.391,0l0.788-15.754c3.938,0,8.665,0,12.603,0h2.363v15.754
		H252.218z M271.123,503.484l-0.788-15.754c4.726,0,10.24-0.788,14.966-1.575l2.363,15.754
		C282.15,502.696,276.636,503.484,271.123,503.484z M222.286,502.696c-5.514-0.788-11.028-1.575-15.754-2.363l3.151-15.754
		c4.726,0.788,10.24,1.575,14.966,2.363L222.286,502.696z M303.418,498.758l-3.151-15.754c4.726-0.788,10.24-2.363,14.966-3.938
		l3.938,14.966C313.658,496.395,308.932,497.97,303.418,498.758z M190.778,496.395c-5.514-1.575-10.24-3.151-15.754-4.726
		l4.726-14.966c4.726,1.575,9.452,3.151,14.966,3.938L190.778,496.395z M334.926,490.093l-5.514-14.966
		c4.726-1.575,9.452-3.151,14.178-5.514l6.302,14.178C345.166,486.942,339.652,488.518,334.926,490.093z M159.27,486.942
		c-4.726-2.363-10.24-3.938-14.966-6.302l7.089-14.178c4.726,2.363,9.452,3.938,14.178,6.302L159.27,486.942z"/>
	<path style="fill:#183651;" d="M479.861,360.124l-14.178-7.089c2.363-4.726,3.938-9.452,6.302-14.178l14.966,5.514
		C484.587,349.884,482.224,354.61,479.861,360.124z M492.464,329.404l-14.966-4.726c1.575-4.726,3.151-9.452,3.938-14.966
		l14.966,3.938C495.615,319.164,494.039,324.678,492.464,329.404z M500.341,297.896l-15.754-2.363
		c0.788-4.726,1.575-10.24,2.363-14.966l15.754,1.575C501.916,287.656,501.129,293.17,500.341,297.896z M504.279,265.601
		l-15.754-0.788c0-3.938,0-8.665,0-12.603v-2.363h15.754v2.363C504.279,256.936,504.279,261.662,504.279,265.601z M487.738,234.093
		c0-4.726-0.788-10.24-1.575-14.966l15.754-2.363c0.788,5.514,1.575,11.028,1.575,16.542L487.738,234.093z M483.799,204.161
		c-0.788-4.726-2.363-10.24-3.938-14.966l14.966-3.938c1.575,5.514,2.363,10.24,3.938,15.754L483.799,204.161z M475.923,175.016
		c-1.575-4.726-3.151-9.452-5.514-14.178l14.178-6.302c2.363,4.726,3.938,10.24,5.514,14.966L475.923,175.016z"/>
</g>
<g>
</g>
<g>
</g>
<g>
</g>
<g>
</g>
<g>
</g>
<g>
</g>
<g>
</g>
<g>
</g>
<g>
</g>
<g>
</g>
<g>
</g>
<g>
</g>
<g>
</g>
<g>
</g>
<g>
</g>
</svg>
