<?xml version="1.0" encoding="iso-8859-1"?>
<!-- Generator: Adobe Illustrator 19.0.0, SVG Export Plug-In . SVG Version: 6.00 Build 0)  -->
<svg xmlns="http://www.w3.org/2000/svg" xmlns:xlink="http://www.w3.org/1999/xlink" version="1.1" id="Capa_1" x="0px" y="0px" viewBox="0 0 512 512" style="enable-background:new 0 0 512 512;" xml:space="preserve" width="512px" height="512px">
<g>
	<g>
		<g>
			<path d="M336,192h-64v-64h48V0H192v128h48v64h-64v32h160V192z M224,96V32h64v64H224z" fill="#FFFFFF"/>
			<rect x="112" y="192" width="32" height="32" fill="#FFFFFF"/>
			<path d="M512,320V192h-80v32h48v64H32v-64h48v-32H0v128h48v64H0v128h128v-48h64v48h128v-48h64v48h128V384h-48v-64H512z M96,480     H32v-64h64V480z M192,432h-64v-48H80v-64h160v64h-48V432z M288,480h-64v-64h64V480z M384,432h-64v-48h-48v-64h160v64h-48V432z      M480,416v64h-64v-64H480z" fill="#FFFFFF"/>
			<rect x="368" y="192" width="32" height="32" fill="#FFFFFF"/>
		</g>
	</g>
</g>
<g>
</g>
<g>
</g>
<g>
</g>
<g>
</g>
<g>
</g>
<g>
</g>
<g>
</g>
<g>
</g>
<g>
</g>
<g>
</g>
<g>
</g>
<g>
</g>
<g>
</g>
<g>
</g>
<g>
</g>
</svg>
