<?xml version="1.0" encoding="utf-8"?>
<!-- Svg Vector Icons : http://www.sfont.cn -->
<!DOCTYPE svg PUBLIC "-//W3C//DTD SVG 1.1//EN" "http://www.w3.org/Graphics/SVG/1.1/DTD/svg11.dtd">
<svg version="1.1" xmlns="http://www.w3.org/2000/svg" xmlns:xlink="http://www.w3.org/1999/xlink" x="0px" y="0px" viewBox="0 0 1000 1000" enable-background="new 0 0 1000 1000" xml:space="preserve">
<metadata> Svg Vector Icons : http://www.sfont.cn </metadata>
<g><g transform="translate(0.000000,511.000000) scale(0.100000,-0.100000)"><path d="M2484.7,2581.1c-42-9.3-114.3-44.3-163.3-77c-46.7-35-555.3-532-1127-1106C111.7,308.4,100,296.7,100,107.7c0-189,7-198.3,1129.3-1323c592.7-590.3,1113-1094.3,1157.3-1115.3c123.7-63,301-53.7,427,18.7c126,74.7,198.3,182,217,324.3c30.3,214.7,28,214.7-942.7,1192.3l-903,903l903,905.3c970.7,975.3,973,975.3,942.7,1190c-18.7,140-91,249.7-207.7,317.3C2708.7,2585.7,2592,2606.7,2484.7,2581.1z" fill="#ffffff"/><path d="M5718.7,2581.1c-154-46.7-224-114.3-329-322c-58.3-112-518-1068.7-1022-2128c-898.3-1880.6-919.3-1927.3-919.3-2067.3c0-175,79.3-310.3,226.3-385c186.7-95.7,396.7-60.7,536.7,88.7c35,37.3,492.3,963.7,1061.7,2153.7c975.3,2039.3,998.7,2090.7,998.7,2228.3c0,105-14,161-56,228.7C6120,2532.1,5877.3,2632.4,5718.7,2581.1z" fill="#ffffff"/><path d="M7321.7,2583.4c-196-49-333.7-196-354.7-385c-25.7-212.3-21-214.7,945-1185.3l903-905.3l-903-903c-970.7-977.7-973-977.7-942.7-1192.3c18.7-142.3,91-249.7,217-324.3c126-72.3,303.3-81.7,427-18.7c44.3,21,555.3,513.3,1136.3,1094.3C9832.3-155.9,9897.7-78.9,9900,93.8c0,203,4.7,200.7-1129.3,1337c-592.6,590.3-1106,1092-1145.7,1110.7C7531.7,2585.7,7408,2604.4,7321.7,2583.4z" fill="#ffffff"/></g></g>
</svg>