<?xml version="1.0" encoding="iso-8859-1"?>
<!-- Generator: Adobe Illustrator 19.0.0, SVG Export Plug-In . SVG Version: 6.00 Build 0)  -->
<svg version="1.1" id="Capa_1" xmlns="http://www.w3.org/2000/svg" xmlns:xlink="http://www.w3.org/1999/xlink" x="0px" y="0px"
	 viewBox="0 0 504.123 504.123" style="enable-background:new 0 0 504.123 504.123;" xml:space="preserve">
<circle style="fill:#E0E4E8;" cx="251.668" cy="256" r="248.123"/>
<path style="fill:#2EA0DA;" d="M376.911,89.009c3.151-10.24,12.603-18.117,23.631-18.117c1.575,0,3.151,0,4.726,0.788
	c5.514-9.452,15.754-15.754,27.569-15.754c18.117,0,32.295,14.178,32.295,32.295v0.788c14.966,0.788,25.994,12.603,25.994,27.569
	s-12.603,27.569-27.569,27.569h-86.646c-14.966,0-27.569-12.603-27.569-27.569C350.129,100.825,361.945,89.009,376.911,89.009z"/>
<path style="fill:#183651;" d="M464.345,151.237h-86.646c-19.692,0-35.446-15.754-35.446-35.446
	c0-17.329,12.603-32.295,29.932-34.658c5.514-11.028,17.329-18.905,30.72-18.117c7.877-9.452,18.905-14.966,31.508-14.966
	c20.48,0,37.022,14.966,39.385,33.871c14.966,3.938,26.782,18.117,26.782,33.871C499.791,135.483,484.037,151.237,464.345,151.237z
	 M401.329,78.769c-7.877,0-14.178,4.726-16.542,12.603c-0.788,3.151-3.938,5.514-7.089,5.514c-11.028,0-19.692,8.665-19.692,19.692
	c0,11.028,8.665,19.692,19.692,19.692h86.646c11.028,0,19.692-8.665,19.692-19.692c0-10.24-7.877-18.905-18.905-19.692
	c-3.938,0-7.877-3.938-7.089-7.877v-0.788c0-13.391-11.028-24.418-24.418-24.418c-8.665,0-16.542,4.726-21.268,11.815
	c-1.575,3.151-4.726,3.938-7.877,3.938C402.905,78.769,402.117,78.769,401.329,78.769z"/>
<path style="fill:#FFFFFF;" d="M118.548,366.277v18.905h125.243v-18.905c0-23.631,8.665-46.474,23.631-65.378
	c29.145-36.234,48.049-86.646,48.049-127.606c0.788-74.831-59.865-134.695-133.908-134.695S46.868,98.462,46.868,172.505
	c0,41.748,18.905,91.372,48.049,127.606C109.883,319.015,118.548,341.858,118.548,366.277z"/>
<path style="fill:#183651;" d="M251.668,393.058H111.458v-26.782c0-21.268-7.877-42.535-22.055-60.652
	c-30.72-37.022-50.412-89.797-50.412-133.12c0-78.769,63.803-142.572,142.572-142.572s142.572,63.803,142.572,142.572
	c0,43.323-19.692,95.311-49.625,133.12c-14.178,17.329-22.055,39.385-22.055,60.652v26.782H251.668z M126.425,377.305h109.489
	v-11.028c0-24.418,9.452-49.625,25.994-70.105c28.357-34.658,46.474-83.495,46.474-122.88c0-70.105-56.714-126.818-126.818-126.818
	S54.745,103.188,54.745,172.505c0,40.172,18.117,88.222,46.474,122.88c16.542,20.48,25.994,45.686,25.994,70.105v11.815H126.425z"/>
<path style="fill:#FFFFFF;" d="M110.671,385.182v81.132c0,11.815,9.452,22.055,22.055,22.055H230.4
	c11.815,0,22.055-9.452,22.055-22.055v-81.132H110.671z"/>
<path style="fill:#183651;" d="M230.4,496.246h-97.674c-16.542,0-29.145-13.391-29.145-29.932v-89.009h156.751v89.009
	C259.545,482.855,246.154,496.246,230.4,496.246z M118.548,393.058v74.043c0,7.877,6.302,14.178,14.178,14.178H230.4
	c7.877,0,14.178-6.302,14.178-14.178v-74.043H118.548z"/>
<path style="fill:#183651;" d="M101.218,435.594c-3.938,0-7.089-3.151-7.877-7.089c-0.788-3.938,2.363-7.877,6.302-8.665
	l160.689-21.268c3.938-0.788,7.877,2.363,8.665,6.302c0.788,3.938-2.363,7.877-6.302,8.665l-160.689,21.268
	C102.006,435.594,102.006,435.594,101.218,435.594z"/>
<path style="fill:#183651;" d="M101.218,471.04c-3.938,0-7.089-3.151-7.877-7.089c-0.788-3.938,2.363-7.877,6.302-8.665
	l160.689-21.268c3.938-0.788,7.877,2.363,8.665,6.302c0.788,3.938-2.363,7.877-6.302,8.665l-160.689,21.268
	C102.006,471.04,102.006,471.04,101.218,471.04z"/>
<path style="fill:#FBBD5E;" d="M181.563,69.317c-56.714,0-103.188,46.474-103.188,103.188c0,34.658,16.542,77.982,40.96,107.914
	c17.329,21.268,27.569,46.474,30.72,72.468v23.631h63.803v-23.631c2.363-25.994,13.391-51.2,30.72-72.468
	c24.418-30.72,40.96-74.043,40.96-107.914C284.751,115.791,238.277,69.317,181.563,69.317z"/>
<path style="fill:#FFFFFF;" d="M467.495,409.6l22.843-3.151v-31.508l-22.843-3.151c-1.575-7.877-4.726-14.966-8.665-21.268
	l14.178-18.117l-22.055-21.268l-18.117,14.178c-6.302-3.938-13.391-7.089-21.268-8.665l-3.151-22.843h-31.508l-3.151,22.843
	c-7.877,1.575-14.966,4.726-21.268,8.665l-16.542-14.178l-22.055,22.055l14.178,18.117c-3.938,6.302-7.089,13.391-8.665,21.268
	l-22.843,3.151v31.508l22.843,3.151c1.575,7.877,4.726,14.966,8.665,21.268l-14.178,18.117l22.055,22.055l18.117-14.178
	c6.302,3.938,13.391,7.089,21.268,8.665l3.151,22.843h31.508l3.151-22.843c7.877-1.575,14.966-4.726,21.268-8.665l18.117,14.178
	l22.055-22.055l-14.178-18.117C462.769,423.778,465.92,416.689,467.495,409.6z"/>
<path style="fill:#183651;" d="M416.295,496.246h-44.898l-3.151-25.206c-4.726-1.575-8.665-3.151-13.391-5.514l-19.692,15.754
	l-31.508-31.508l15.754-19.692c-2.363-3.938-3.938-8.665-5.514-13.391l-25.206-3.151V368.64l25.206-3.151
	c1.575-4.726,3.151-8.665,5.514-13.391l-15.754-19.692l31.508-31.508l19.692,15.754c3.938-2.363,8.665-3.938,13.391-5.514
	l3.151-25.206h44.898l3.151,25.206c4.726,1.575,8.665,3.151,13.391,5.514l19.692-15.754l31.508,31.508l-15.754,19.692
	c2.363,3.938,3.938,8.665,5.514,13.391l25.206,3.151v44.898l-25.206,3.151c-1.575,4.726-3.151,8.665-5.514,13.391l15.754,19.692
	l-31.508,31.508l-19.692-15.754c-3.938,2.363-8.665,3.938-13.391,5.514L416.295,496.246z M384.788,480.492h17.329l2.363-21.268
	l5.514-1.575c6.302-1.575,13.391-3.938,18.905-7.877l4.726-3.151l17.329,13.391l12.603-12.603l-13.391-17.329l2.363-4.726
	c3.151-5.514,6.302-12.603,7.877-18.905l1.575-5.514l21.268-2.363v-16.542l-21.268-2.363l-1.575-5.514
	c-1.575-6.302-3.938-13.391-7.877-18.905l-3.151-4.726l13.391-17.329l-12.603-12.603l-16.542,14.178l-4.726-2.363
	c-5.514-3.938-12.603-6.302-18.905-7.877l-5.514-1.575l-2.363-21.268h-17.329l-2.363,21.268l-5.514,1.575
	c-6.302,1.575-13.391,3.938-18.905,7.877l-4.726,2.363l-17.329-13.391l-12.603,12.603l13.391,17.329l-2.363,4.726
	c-3.151,5.514-6.302,12.603-7.877,18.905l-1.575,5.514l-21.268,1.575v17.329l21.268,2.363l1.575,5.514
	c1.575,6.302,3.938,13.391,7.877,18.905l3.151,4.726l-13.391,17.329l12.603,12.603l17.329-13.391l4.726,3.151
	c5.514,3.151,12.603,6.302,18.905,7.877l5.514,1.575L384.788,480.492z"/>
<circle style="fill:#F06151;" cx="393.452" cy="391.483" r="52.775"/>
<g>
	<rect x="3.545" y="170.142" style="fill:#183651;" width="15.754" height="15.754"/>
	<rect x="343.828" y="170.142" style="fill:#183651;" width="15.754" height="15.754"/>
	
		<rect x="26.139" y="255.071" transform="matrix(-0.5003 -0.8659 0.8659 -0.5003 -176.6435 423.9489)" style="fill:#183651;" width="15.754" height="15.754"/>
	
		<rect x="320.792" y="85.036" transform="matrix(-0.4998 -0.8661 0.8661 -0.4998 412.4684 424.0222)" style="fill:#183651;" width="15.753" height="15.753"/>
	
		<rect x="258.647" y="22.858" transform="matrix(-0.8659 -0.5002 0.5002 -0.8659 481.936 190.6643)" style="fill:#183651;" width="15.754" height="15.754"/>
	<rect x="173.686" style="fill:#183651;" width="15.754" height="15.754"/>
	
		<rect x="88.457" y="22.738" transform="matrix(-0.4999 -0.8661 0.8661 -0.4999 117.9753 129.3524)" style="fill:#183651;" width="15.754" height="15.754"/>
	
		<rect x="320.846" y="255.209" transform="matrix(-0.8661 -0.4999 0.4999 -0.8661 481.9113 655.2673)" style="fill:#183651;" width="15.754" height="15.754"/>
	
		<rect x="26.302" y="85.047" transform="matrix(-0.8659 -0.5003 0.5003 -0.8659 17.2866 190.4837)" style="fill:#183651;" width="15.754" height="15.754"/>
</g>
<g>
	<polygon style="fill:#FFFFFF;" points="177.625,122.88 202.043,122.88 183.926,163.052 210.708,163.052 166.597,225.28 
		179.2,183.532 154.782,183.532 	"/>
	<circle style="fill:#FFFFFF;" cx="393.452" cy="391.483" r="21.268"/>
</g>
<path style="fill:#183651;" d="M393.452,419.84c-15.754,0-29.145-12.603-29.145-29.145c0-15.754,12.603-29.145,29.145-29.145
	c16.542,0,29.145,12.603,29.145,29.145S409.206,419.84,393.452,419.84z M393.452,377.305c-7.089,0-13.391,6.302-13.391,13.391
	s6.302,13.391,13.391,13.391c7.089,0,13.391-6.302,13.391-13.391S400.542,377.305,393.452,377.305z"/>
<g>
</g>
<g>
</g>
<g>
</g>
<g>
</g>
<g>
</g>
<g>
</g>
<g>
</g>
<g>
</g>
<g>
</g>
<g>
</g>
<g>
</g>
<g>
</g>
<g>
</g>
<g>
</g>
<g>
</g>
</svg>
