<?xml version="1.0" encoding="utf-8"?>
<!-- Svg Vector Icons : http://www.sfont.cn -->
<!DOCTYPE svg PUBLIC "-//W3C//DTD SVG 1.1//EN" "http://www.w3.org/Graphics/SVG/1.1/DTD/svg11.dtd">
<svg version="1.1" xmlns="http://www.w3.org/2000/svg" xmlns:xlink="http://www.w3.org/1999/xlink" x="0px" y="0px" viewBox="0 0 1000 1000" enable-background="new 0 0 1000 1000" xml:space="preserve">
<metadata> Svg Vector Icons : http://www.sfont.cn </metadata>
<g><g><g><path d="M848.6,258.6c-2.1-62.7-3.2-147.4-2.6-210.1c0-2.8-0.4-5.3-1.1-7.6c1.2-13.7-6.8-28.1-24.3-27.6c-221,5.8-441.9-2.9-662.9-3.2c-18.4,0-26.4,16.1-24.2,30.3c-0.7,2.5-1.2,5.1-1.2,8.1c3.3,263.7,12.4,642.6,12.7,906.3c0,5.9,1.7,10.7,4.4,14.5c1.6,11.2,9.7,21.1,24.2,20.7c95.5-2.4,191.1-3.9,286.5-8.6c85.1-4.2,191.1,1.4,272.4-26.3c28.8-9.8,54.5-24.4,76.6-45.4c40.4-38.5,54.1-90.1,57.6-144.5c3.3-52.3-2.8-107.1-4.1-155.3C859.5,485.5,852.7,382.9,848.6,258.6z M708.8,728.9c-15.6,0.1-30.6,12.2-23.6,30.9c14,37.5,20.4,84.1-1.1,120c-26,43.4-72.4,42.2-116.5,47.8c-27,3.4-55.6,1.6-82.8,2.4c-21.2,0.6-289,7.1-289,8.2c-0.6-253.8-9-622.9-12.4-876.7c204,0.9,408,7.9,612,3.5c-0.8,208.4,17.7,509.7,18.8,674.4c-31.6-10-64.4-14.2-98.1-11.9C713.3,727.6,711,728.2,708.8,728.9z M728.7,902.4c20.5-34.9,25.6-77.8,15-124.2c24.7,1,49,5.7,72,15.5c0.1,0.3,0.2,0.6,0.3,0.9C808.5,849.6,773.7,883.4,728.7,902.4z" fill="#ffffff"/><path d="M272.8,310.2c-9.5,1-16.1,6-20.1,12.6c-5,4.1-8.4,10.4-8.4,18.8c-0.5,68.8,10.4,136.3,22.3,203.8c5.8,32.6,55.3,18.7,49.5-13.7c-4.2-23.5-8.1-47-11.5-70.6c40.5-1.8,78.6-22.3,78.5-70.2C383.1,333.7,322.7,305.1,272.8,310.2z M331.2,396.9c-0.8,3.4-1.4,4.4-5.6,8.5c-4.7,4.5-16.3,5.8-26.9,5.3c-1.5-16.4-2.5-32.8-2.9-49.3c7.2,0.9,14.3,3,21.1,6.9c8.8,5.1,12.4,11.7,14.5,20.2c-0.2-0.2,0.4,4.7,0.4,5c0,0.6,0,0.9,0,1.3C331.7,395.2,331.5,395.8,331.2,396.9z" fill="#ffffff"/><path d="M585.3,307.3c2-33.1-49.4-32.9-51.4,0c-1.8,29.7-0.9,59.2,1.3,88.6c-22.8,2.4-45.5,4.8-68.3,7.1c-0.3,0-0.6,0.1-1,0.2c-4.6-30.6-10-61-17.1-91.2c-7.5-32.3-57.1-18.6-49.5,13.7c14.6,62.2,22.1,125.3,29,188.7c3.6,32.6,55,32.9,51.4,0c-2.2-20.2-4.5-40.4-7-60.5c22.4-2.3,44.8-4.6,67.2-7c2.7,24.4,5.7,48.8,8.3,73.2c3.5,32.6,54.9,32.9,51.4,0C592,449.1,581,378.8,585.3,307.3z" fill="#ffffff"/><path d="M750.7,361.5c-8-49.7-58.2-78.2-105.4-75.6c-12.3,0.7-20,8.3-23.2,17.4c-1.5,3.2-2.5,6.9-2.5,11.1C618.7,379,624,443,631,507.1c3.6,32.6,55,32.9,51.4,0c-2.2-19.9-4.1-39.8-5.8-59.7C720.9,441.5,758.7,411.7,750.7,361.5z M673,396.3c-1-18.6-1.6-37.3-1.8-56c13.3,4.3,24.4,13.2,28.7,28.4C704.8,386,689.6,393.8,673,396.3z" fill="#ffffff"/></g></g><g></g><g></g><g></g><g></g><g></g><g></g><g></g><g></g><g></g><g></g><g></g><g></g><g></g><g></g><g></g></g>
</svg>