<?xml version="1.0" encoding="iso-8859-1"?>
<!-- Generator: Adobe Illustrator 19.0.0, SVG Export Plug-In . SVG Version: 6.00 Build 0)  -->
<svg version="1.1" id="Capa_1" xmlns="http://www.w3.org/2000/svg" xmlns:xlink="http://www.w3.org/1999/xlink" x="0px" y="0px"
	 viewBox="0 0 504.123 504.123" style="enable-background:new 0 0 504.123 504.123;" xml:space="preserve">
<circle style="fill:#2EA0DA;" cx="252.062" cy="252.062" r="252.062"/>
<path style="fill:#FFFFFF;" d="M476.554,7.877H27.569c-11.028,0-18.905,8.665-18.905,18.905l0,0
	c0,11.028,8.665,18.905,18.905,18.905h448.985c11.028,0,18.905-8.665,18.905-18.905l0,0C496.246,16.542,487.582,7.877,476.554,7.877
	z"/>
<path style="fill:#183651;" d="M476.554,54.351H27.569c-14.966,0-26.782-11.815-26.782-26.782S12.603,0,27.569,0h448.985
	c14.966,0,26.782,11.815,26.782,26.782S491.52,54.351,476.554,54.351z M27.569,15.754c-6.302,0-11.028,4.726-11.028,11.028
	s4.726,11.815,11.028,11.815h448.985c6.302,0,11.028-4.726,11.028-11.028s-4.726-11.815-11.028-11.815H27.569z"/>
<path style="fill:#FFFFFF;" d="M476.554,337.132H27.569c-11.028,0-18.905,8.665-18.905,18.905l0,0
	c0,11.028,8.665,18.905,18.905,18.905h448.985c11.028,0,18.905-8.665,18.905-18.905l0,0
	C496.246,345.797,487.582,337.132,476.554,337.132z"/>
<path style="fill:#183651;" d="M476.554,383.606H27.569c-14.966,0-26.782-11.815-26.782-26.782
	c0-14.966,11.815-26.782,26.782-26.782h448.985c14.966,0,26.782,11.815,26.782,26.782
	C503.335,371.791,491.52,383.606,476.554,383.606z M27.569,345.009c-6.302,0-11.028,4.726-11.028,11.028s4.726,11.028,11.028,11.028
	h448.985c6.302,0,11.028-4.726,11.028-11.028c0-6.302-4.726-11.028-11.028-11.028H27.569z"/>
<rect x="37.809" y="46.474" style="fill:#FBBD5E;" width="428.505" height="290.658"/>
<path style="fill:#183651;" d="M466.314,345.009H37.809c-4.726,0-7.877-3.151-7.877-7.877V46.474c0-4.726,3.151-7.877,7.877-7.877
	h428.505c4.726,0,7.877,3.151,7.877,7.877v290.658C474.191,341.858,471.04,345.009,466.314,345.009z M45.686,329.255h412.751V54.351
	H45.686V329.255z"/>
<rect x="69.317" y="77.982" style="fill:#FFFFFF;" width="365.489" height="228.431"/>
<g>
	<path style="fill:#183651;" d="M355.249,499.397L301.686,378.88c-1.575-3.938,0-8.665,3.938-10.24c3.938-1.575,8.665,0,10.24,3.938
		l53.563,120.517c1.575,3.938,0,8.665-3.938,10.24C361.551,504.911,356.825,503.335,355.249,499.397z"/>
	<path style="fill:#183651;" d="M138.634,503.335c-3.938-1.575-5.514-6.302-3.938-10.24l53.563-120.517
		c1.575-3.938,6.302-5.514,10.24-3.938c3.938,1.575,5.514,6.302,3.938,10.24l-53.563,120.517
		C147.298,503.335,142.572,504.911,138.634,503.335z"/>
	<path style="fill:#183651;" d="M252.062,481.28c-4.726,0-7.877-3.151-7.877-7.877v-97.674c0-4.726,3.151-7.877,7.877-7.877
		s7.877,3.151,7.877,7.877v97.674C259.938,477.342,256.788,481.28,252.062,481.28z"/>
	<path style="fill:#183651;" d="M285.145,237.095c-2.363,0-3.938-0.788-5.514-2.363l-65.378-65.378l-63.803,63.803
		c-3.151,3.151-7.877,3.151-11.028,0c-3.151-3.151-3.151-7.877,0-11.028l69.317-69.317c3.151-3.151,7.877-3.151,11.028,0
		l65.378,65.378l92.16-92.16c3.151-3.151,7.877-3.151,11.028,0s3.151,7.877,0,11.028l-97.674,97.674
		C289.083,236.308,286.72,237.095,285.145,237.095z"/>
</g>
<circle style="fill:#FFFFFF;" cx="285.145" cy="229.218" r="22.843"/>
<path style="fill:#183651;" d="M285.145,259.938c-17.329,0-30.72-14.178-30.72-30.72s14.178-30.72,30.72-30.72
	c17.329,0,30.72,14.178,30.72,30.72S302.474,259.938,285.145,259.938z M285.145,213.465c-8.665,0-14.966,7.089-14.966,14.966
	s7.089,14.966,14.966,14.966c8.665,0,14.966-7.089,14.966-14.966S293.809,213.465,285.145,213.465z"/>
<circle style="fill:#FFFFFF;" cx="144.935" cy="229.218" r="22.843"/>
<path style="fill:#183651;" d="M144.935,259.938c-17.329,0-30.72-14.178-30.72-30.72s14.178-30.72,30.72-30.72
	s30.72,14.178,30.72,30.72S161.477,259.938,144.935,259.938z M144.935,213.465c-8.665,0-14.966,7.089-14.966,14.966
	s7.089,14.966,14.966,14.966c8.665,0,14.966-7.089,14.966-14.966S152.812,213.465,144.935,213.465z"/>
<circle style="fill:#FFFFFF;" cx="214.252" cy="159.902" r="22.843"/>
<g>
	<path style="fill:#183651;" d="M214.252,190.622c-17.329,0-30.72-14.178-30.72-30.72s14.178-30.72,30.72-30.72
		s30.72,14.178,30.72,30.72S231.582,190.622,214.252,190.622z M214.252,144.148c-8.665,0-14.966,7.089-14.966,14.966
		c0,8.665,7.089,14.966,14.966,14.966c8.665,0,14.966-7.089,14.966-14.966C230.006,151.237,222.917,144.148,214.252,144.148z"/>
	<path style="fill:#183651;" d="M382.818,180.382c-4.726,0-7.877-3.151-7.877-7.877v-33.083h-33.083
		c-4.726,0-7.877-3.151-7.877-7.877c0-4.726,3.151-7.877,7.877-7.877h40.96c4.726,0,7.877,3.151,7.877,7.877v40.96
		C390.695,177.231,386.757,180.382,382.818,180.382z"/>
	<rect x="335.557" y="270.966" style="fill:#183651;" width="15.754" height="15.754"/>
	<rect x="367.065" y="270.966" style="fill:#183651;" width="15.754" height="15.754"/>
	<rect x="398.572" y="270.966" style="fill:#183651;" width="15.754" height="15.754"/>
	<rect x="89.797" y="97.674" style="fill:#183651;" width="15.754" height="15.754"/>
	<rect x="121.305" y="97.674" style="fill:#183651;" width="15.754" height="15.754"/>
	<rect x="152.812" y="97.674" style="fill:#183651;" width="15.754" height="15.754"/>
</g>
<g>
</g>
<g>
</g>
<g>
</g>
<g>
</g>
<g>
</g>
<g>
</g>
<g>
</g>
<g>
</g>
<g>
</g>
<g>
</g>
<g>
</g>
<g>
</g>
<g>
</g>
<g>
</g>
<g>
</g>
</svg>
