<?xml version="1.0" encoding="utf-8"?>
<!-- Svg Vector Icons : http://www.sfont.cn -->
<!DOCTYPE svg PUBLIC "-//W3C//DTD SVG 1.1//EN" "http://www.w3.org/Graphics/SVG/1.1/DTD/svg11.dtd">
<svg version="1.1" xmlns="http://www.w3.org/2000/svg" xmlns:xlink="http://www.w3.org/1999/xlink" x="0px" y="0px" viewBox="0 0 1000 1000" enable-background="new 0 0 1000 1000" xml:space="preserve">
<metadata> Svg Vector Icons : http://www.sfont.cn </metadata>
<g><path d="M500,10C229.4,10,10,229.4,10,500c0,270.6,219.4,490,490,490c270.6,0,490-219.4,490-490C990,229.4,770.6,10,500,10L500,10z M500,928.8C259.4,928.8,71.3,740.6,71.3,500C71.3,259.4,259.4,71.3,500,71.3c240.5,0,428.7,188.2,428.7,428.7C928.7,740.6,740.5,928.8,500,928.8L500,928.8z M391.1,173.3h217.8l-54.4,108.9H445.6L391.1,173.3z M396.1,577.9L604,729.1l32.1-38.5l-7.1-25L415.4,510.2L396.1,577.9z M579.9,493.8l-52.7-184.3h-54.4l-25.2,88.1L579.9,493.8z M389.6,600.4l-25.8,90.2L500,853.9L589.9,746L389.6,600.4z M441.2,420.1l-19.3,67.6l197.3,143.5l-29.5-103.1L441.2,420.1z" fill="#ffffff"/></g>
</svg>