<?xml version="1.0" encoding="iso-8859-1"?>
<!-- Generator: Adobe Illustrator 19.0.0, SVG Export Plug-In . SVG Version: 6.00 Build 0)  -->
<svg xmlns="http://www.w3.org/2000/svg" xmlns:xlink="http://www.w3.org/1999/xlink" version="1.1" id="Capa_1" x="0px" y="0px" viewBox="0 0 512.043 512.043" style="enable-background:new 0 0 512.043 512.043;" xml:space="preserve" width="512px" height="512px">
<g>
	<g>
		<g>
			<path d="M368,238.397h-32v34.944c-24.946,8.786-38.045,36.132-29.259,61.077c6.76,19.193,24.911,32.017,45.259,31.979     c8.837,0,16,7.163,16,16s-7.163,16-16,16h-48v32h32v32h32v-34.944c24.946-8.786,38.045-36.132,29.259-61.077     c-6.76-19.193-24.911-32.017-45.259-31.979c-8.837,0-16-7.163-16-16s7.163-16,16-16h48v-32h-32V238.397z" fill="#FFFFFF"/>
			<path d="M504.63,302.403c-15.686-49.878-54.753-88.945-104.63-104.63v-55.376h45.888L352,1.597l-93.888,140.8H304v55.376     c-84.295,26.51-131.14,116.335-104.63,200.63c26.51,84.295,116.335,131.14,200.63,104.63     C484.295,476.524,531.14,386.698,504.63,302.403z M352,59.197l34.112,51.2H368v80.816c-10.639-1.088-21.361-1.088-32,0v-80.816     h-18.112L352,59.197z M352,478.397c-70.692,0-128-57.308-128-128s57.308-128,128-128s128,57.308,128,128     C479.921,421.056,422.66,478.317,352,478.397z" fill="#FFFFFF"/>
			<path d="M0,510.397h96v-320H0V510.397z M32,222.397h32v256H32V222.397z" fill="#FFFFFF"/>
			<polygon points="160,126.397 192,126.397 192,206.397 224,206.397 224,94.397 128,94.397 128,510.397 208,510.397 208,478.397      160,478.397    " fill="#FFFFFF"/>
		</g>
	</g>
</g>
<g>
</g>
<g>
</g>
<g>
</g>
<g>
</g>
<g>
</g>
<g>
</g>
<g>
</g>
<g>
</g>
<g>
</g>
<g>
</g>
<g>
</g>
<g>
</g>
<g>
</g>
<g>
</g>
<g>
</g>
</svg>
