<?xml version="1.0" encoding="iso-8859-1"?>
<!-- Generator: Adobe Illustrator 19.0.0, SVG Export Plug-In . SVG Version: 6.00 Build 0)  -->
<svg xmlns="http://www.w3.org/2000/svg" xmlns:xlink="http://www.w3.org/1999/xlink" version="1.1" id="Capa_1" x="0px" y="0px" viewBox="0 0 512 512" style="enable-background:new 0 0 512 512;" xml:space="preserve" width="512px" height="512px">
<g>
	<g>
		<g>
			<rect x="416" y="288" width="32" height="32" fill="#FFFFFF"/>
			<rect x="416" y="224" width="32" height="32" fill="#FFFFFF"/>
			<path d="M400,0v32h63.52L328.128,208H217.984l-128,112H0v192h128V329.264l32-28V512h128V240h32v272h128V352h-32v128h-64V229.44     l64-83.2V192h32v-87.36l32-41.6V112h32V0H400z M96,480H32V352h64V480z M256,480h-64V273.264L230.016,240H256V480z" fill="#FFFFFF"/>
			<path d="M32,256h32v-32h32v32h32v-37.616c27.836-13.09,39.789-46.267,26.699-74.103c-2.861-6.084-6.801-11.6-11.627-16.281     c22.082-21.414,22.623-56.675,1.209-78.757C139.6,44.417,134.084,40.477,128,37.616V0H96v32H64V0H32v32H0v32h32v128H0v32h32V256z      M64,64h40c13.255,0,24,10.745,24,24s-10.745,24-24,24H64V64z M64,144h40c13.255,0,24,10.745,24,24s-10.745,24-24,24H64V144z" fill="#FFFFFF"/>
		</g>
	</g>
</g>
<g>
</g>
<g>
</g>
<g>
</g>
<g>
</g>
<g>
</g>
<g>
</g>
<g>
</g>
<g>
</g>
<g>
</g>
<g>
</g>
<g>
</g>
<g>
</g>
<g>
</g>
<g>
</g>
<g>
</g>
</svg>
