<?xml version="1.0" encoding="utf-8"?>
<!-- Svg Vector Icons : http://www.sfont.cn -->
<!DOCTYPE svg PUBLIC "-//W3C//DTD SVG 1.1//EN" "http://www.w3.org/Graphics/SVG/1.1/DTD/svg11.dtd">
<svg version="1.1" xmlns="http://www.w3.org/2000/svg" xmlns:xlink="http://www.w3.org/1999/xlink" x="0px" y="0px" viewBox="0 0 1000 1000" enable-background="new 0 0 1000 1000" xml:space="preserve">
<metadata> Svg Vector Icons : http://www.sfont.cn </metadata>
<g><g transform="translate(0.000000,511.000000) scale(0.100000,-0.100000)"><path d="M525.7,4999.9c-164.3-51.5-297-162.3-378.1-318.8l-47.5-89.1V107.8v-4484.2l47.5-89.1c63.4-120.8,150.5-211.8,269.3-273.2l99-53.5H5000h4484.2l104.9,57.4c118.8,65.3,200,150.5,265.3,275.2l45.5,83.2V107.8v4484.2l-53.5,99c-61.4,118.8-152.5,205.9-273.2,269.3l-89.1,47.5l-4454.5,4C2580.7,5013.8,553.4,5007.8,525.7,4999.9z M9470.4,4681.2c35.6-21.8,81.2-67.3,102.9-102.9c39.6-65.3,39.6-108.9,39.6-4470.4s0-4405-39.6-4470.4c-21.8-35.6-67.3-81.2-102.9-102.9c-65.3-39.6-108.9-39.6-4470.4-39.6c-4361.5,0-4405,0-4470.4,39.6c-35.6,21.8-81.2,67.3-103,102.9c-39.6,65.3-39.6,108.9-39.6,4470.4s0,4405,39.6,4470.4c21.8,35.6,67.3,81.2,103,102.9c65.3,39.6,108.9,39.6,4470.4,39.6C9361.5,4720.8,9405,4720.8,9470.4,4681.2z" fill="#ffffff"/><path d="M1317.6,3285.4v-504.8h-273.2c-213.8,0-281.1-5.9-316.8-31.7c-43.6-29.7-43.6-31.7-43.6-631.6c0-459.3,5.9-605.8,25.7-617.7c11.9-7.9,152.4-19.8,310.8-25.7l287.1-9.9V107.8v-1356.2l-287.1-9.9c-158.4-5.9-299-17.8-310.8-25.7c-19.8-11.9-25.7-158.4-25.7-617.7c0-599.9,0-601.8,43.6-631.5c35.6-25.7,102.9-31.7,316.8-31.7h273.2v-504.9v-504.8l49.5-2c27.7,0,1674.9,0,3662.6,0c1987.7,0,3623,0,3632.9,0c13.9,2,19.8,1243.3,19.8,3684.4v3682.4H5000H1317.6V3285.4z M8401.3,113.8l-5.9-3401.3l-3399.3-5.9l-3401.3-4v366.3v366.3h312.8c249.5,0,320.7,5.9,356.4,31.7c43.6,29.7,43.6,33.6,43.6,621.7c0,510.8-4,595.9-31.7,621.7c-25.7,25.7-87.1,31.7-356.4,31.7h-324.7V107.8v1366.1h324.7c269.3,0,330.6,5.9,356.4,31.7c27.7,25.7,31.7,110.9,31.7,621.6c0,588,0,592-43.6,621.7c-35.6,25.7-106.9,31.7-356.4,31.7h-312.8v366.3v366.3H5000h3405.3L8401.3,113.8z" fill="#ffffff"/><path d="M3687.4,1859.9C2812.3,1693.7,2184.7,899.7,2234.2,18.7c45.5-789.9,570.2-1429.4,1342.3-1637.3c235.6-61.4,629.6-61.4,867.1,2c641.5,170.3,1120.6,649.4,1290.8,1290.8c63.4,235.6,63.4,629.6,0,869.1c-162.3,621.7-665.2,1128.5-1278.9,1286.9C4245.7,1885.7,3895.3,1899.5,3687.4,1859.9z M4435.8,1533.3c390-122.7,730.6-409.8,906.7-762.2C5453.4,549.3,5485,396.9,5485,97.9c-2-249.4-5.9-293-57.4-435.6c-134.6-392-409.8-714.7-754.3-886.9c-219.8-108.9-374.2-142.5-663.2-142.5c-225.7,0-291,7.9-415.8,45.5C3097.4-1165.2,2741-810.8,2584.6-317.8c-67.3,213.8-77.2,546.4-21.8,762.2c144.5,578.1,562.3,985.9,1140.4,1120.6C3879.4,1604.6,4257.6,1588.7,4435.8,1533.3z" fill="#ffffff"/><path d="M3721,1256.1c-225.7-59.4-376.2-146.5-544.4-314.8c-217.8-217.8-326.7-451.4-348.4-746.4c-47.5-659.3,443.5-1223.5,1104.7-1269.1c346.5-23.7,657.3,95,908.7,348.5C5013.9-553.4,5101-401,5158.4-177.2c71.3,279.1,35.6,582-102.9,845.4c-83.1,160.4-324.7,401.9-485,485C4309.1,1289.8,3994.3,1327.4,3721,1256.1z" fill="#ffffff"/><path d="M6870.9,1434.3c-160.4-53.5-293-156.4-386.1-297c-95-148.5-126.7-277.2-114.8-475.2c11.9-203.9,77.2-336.6,233.6-483.1l118.8-108.9v-823.6V-1577l49.5-47.5c45.5-47.5,57.4-49.5,332.6-49.5c259.4,0,291,4,338.6,41.6l51.5,39.6v823.6V56.4l116.8,110.9c130.7,124.7,203.9,253.4,239.6,421.7c65.3,320.7-120.8,679.1-429.6,819.6C7268.8,1477.9,7035.2,1489.7,6870.9,1434.3z" fill="#ffffff"/></g></g>
</svg>