<?xml version="1.0" encoding="iso-8859-1"?>
<!-- Generator: Adobe Illustrator 19.0.0, SVG Export Plug-In . SVG Version: 6.00 Build 0)  -->
<svg xmlns="http://www.w3.org/2000/svg" xmlns:xlink="http://www.w3.org/1999/xlink" version="1.1" id="Capa_1" x="0px" y="0px" viewBox="0 0 500.64 500.64" style="enable-background:new 0 0 500.64 500.64;" xml:space="preserve" width="512px" height="512px">
<g>
	<g>
		<g>
			<rect x="234.32" y="26.32" width="32" height="32" fill="#FFFFFF"/>
			<path d="M375.712,26.32H298.32v32h40l-37.472,64H199.792l-37.472-64h40v-32h-77.392L0,250.32l124.928,224h77.392v-32h-40     l37.536-64h101.056l37.408,64h-40v32h77.392l124.928-224L375.712,26.32z M365.968,74.544L455.12,234.32h-73.28l-53.44-95.744     L365.968,74.544z M134.672,74.544l37.568,64l-53.392,95.776H45.52L134.672,74.544z M134.672,426.112L45.52,266.32h73.28     l53.392,95.744L134.672,426.112z M300.544,346.32H200.096l-53.536-96l53.536-96h100.448l53.536,96L300.544,346.32z      M365.968,426.096l-37.568-64l53.392-95.776h73.328L365.968,426.096z" fill="#FFFFFF"/>
			<rect x="234.32" y="442.32" width="32" height="32" fill="#FFFFFF"/>
		</g>
	</g>
</g>
<g>
</g>
<g>
</g>
<g>
</g>
<g>
</g>
<g>
</g>
<g>
</g>
<g>
</g>
<g>
</g>
<g>
</g>
<g>
</g>
<g>
</g>
<g>
</g>
<g>
</g>
<g>
</g>
<g>
</g>
</svg>
