<?xml version="1.0" encoding="utf-8"?>
<!-- Svg Vector Icons : http://www.sfont.cn -->
<!DOCTYPE svg PUBLIC "-//W3C//DTD SVG 1.1//EN" "http://www.w3.org/Graphics/SVG/1.1/DTD/svg11.dtd">
<svg version="1.1" xmlns="http://www.w3.org/2000/svg" xmlns:xlink="http://www.w3.org/1999/xlink" x="0px" y="0px" viewBox="0 0 1000 1000" enable-background="new 0 0 1000 1000" xml:space="preserve">
<metadata> Svg Vector Icons : http://www.sfont.cn </metadata>
<g><path d="M500,10C229.4,10,10,229.4,10,500c0,270.6,219.4,490,490,490c270.6,0,490-219.4,490-490C990,229.4,770.6,10,500,10z M500,947.4C252.9,947.4,52.6,747.1,52.6,500C52.6,252.9,252.9,52.6,500,52.6c247.1,0,447.4,200.3,447.4,447.4C947.4,747.1,747.1,947.4,500,947.4z" fill="#ffffff"/><path d="M683.7,564c9.6,4.8,14.4,13,14.4,24.5v92.7v16.5c0,7.2-2.1,13.4-6.5,18.7c-4.3,5.3-9.8,7.9-16.5,7.9h-353c-6.2,0-11.5-2.6-15.8-7.9c-4.3-5.3-6.5-11.5-6.5-18.7v-16.5v-92.7c0-11.5,4.8-19.6,14.4-24.4l99.2-46l38.8-18c-18.2-11-32.1-26.8-41.7-47.5c-9.1-18.2-13.7-37.6-13.7-58.2c0-6.2,0.5-12.2,1.4-18c1-5.7,2.2-11.3,3.6-16.5c6.7-24.4,18.8-44.6,36.3-60.4c17.5-15.8,37.7-23.7,60.7-23.7c23.5,0,44.1,8.2,61.8,24.4c17.7,16.3,29.7,36.9,35.9,61.8c2.4,12,3.6,22.8,3.6,32.3c0,19.2-3.8,37.6-11.5,55.4c-9.6,21.6-23.5,37.9-41.7,48.9l41,19.4L683.7,564L683.7,564z M299.8,533.8c-10.6,4.8-18.8,12.1-24.8,21.9c-6,9.8-9,20.7-9,32.7v92.7h-74c-5.3,0-9.6-2-12.9-6.1c-3.4-4.1-5-9.2-5-15.5v-87.7c0-10.5,3.8-17.3,11.5-20.1L296.9,500c-13.4-8.1-24.2-19.8-32.4-34.9c-8.1-15.1-12.2-32-12.2-50.7c0-12.9,2.2-25.3,6.5-37c4.3-11.7,10.2-21.9,17.6-30.6c7.4-8.6,16.1-15.5,25.9-20.5c9.8-5,20.5-7.5,32-7.5c7.7,0,14.9,1.2,21.6,3.6c6.7,2.4,13.2,5.5,19.4,9.4c-8.1,20.1-12.2,41-12.2,62.5c0,16.8,2.4,32.9,7.2,48.5c4.8,15.6,11.5,29.6,20.1,42.1c-5.3,5.7-10.8,10.3-16.5,13.7L299.8,533.8z M814.5,551.8c7.7,3.8,11.5,10.5,11.5,20.1v87.7c0,6.2-1.7,11.4-5,15.5c-3.4,4.1-7.7,6.1-12.9,6.1h-76.2l0-92.7c0-12-3-22.9-9-32.7c-6-9.8-14-17.1-24.1-21.9L627.6,500c-6.7-3.8-13.2-9.4-19.4-16.5c8.1-12.4,14.5-26.2,19.1-41.3c4.5-15.1,6.8-31,6.8-47.8c0-11-1-21.6-2.9-31.6c-1.9-10.1-4.8-19.9-8.6-29.5c6.2-4.3,12.9-7.8,20.1-10.4c7.2-2.6,14.6-3.9,22.3-3.9c11.5,0,22.3,2.5,32.3,7.5c10.1,5,18.8,11.9,26.2,20.5c7.4,8.6,13.3,18.8,17.6,30.6c4.3,11.7,6.5,24.1,6.5,37c0,18.2-4.1,34.9-12.2,50c-8.2,15.1-18.4,26.7-30.9,34.9L814.5,551.8L814.5,551.8z" fill="#ffffff"/></g>
</svg>